<?xml version="1.0" encoding="UTF-8"?><svg id="Layer_1" xmlns="http://www.w3.org/2000/svg" viewBox="0 0 80 32"><defs><style>.cls-1{fill:#f7981d;fill-rule:evenodd;}.cls-1,.cls-2,.cls-3{stroke-width:0px;}.cls-2{fill:#535b66;}.cls-3{fill:#232f3f;}</style></defs><path class="cls-3" d="m47.55,1.96c-.25-.17-.53-.26-.86-.26-.24,0-.45.04-.61.13-.16.09-.29.19-.39.32-.1.13-.17.25-.23.37h-.05v-.76h-.45v5.49h.46v-2.24h.04c.05.12.13.25.23.37.1.13.23.23.39.32.16.09.36.13.6.13.33,0,.61-.09.86-.26s.44-.42.58-.73.21-.67.21-1.08-.07-.77-.21-1.08c-.14-.31-.33-.55-.58-.72Zm.18,2.63c-.1.25-.24.45-.42.59-.18.15-.41.22-.67.22s-.48-.07-.66-.21c-.18-.14-.32-.34-.42-.58-.1-.25-.14-.53-.14-.86s.05-.6.14-.85.23-.44.41-.58.4-.21.66-.21.49.07.68.22.32.34.42.59c.1.25.14.52.14.83s-.05.59-.14.84Z"/><path class="cls-3" d="m49.8,5.7c.2.1.42.14.66.14.22,0,.41-.03.58-.11.16-.07.3-.16.41-.27.11-.11.19-.23.25-.34h.03v.63h.46v-2.71c0-.27-.04-.49-.13-.66s-.2-.31-.35-.41c-.14-.1-.3-.17-.46-.21-.17-.04-.32-.06-.48-.06-.2,0-.4.03-.6.09s-.38.15-.53.28c-.16.13-.28.31-.37.52l.44.16c.07-.17.2-.32.38-.45s.42-.19.7-.19c.3,0,.54.08.7.23.16.16.24.37.24.64v.09c0,.1-.04.17-.12.22-.08.05-.2.08-.36.1s-.34.05-.57.07c-.23.03-.43.07-.62.12-.19.05-.35.12-.49.21-.14.09-.24.2-.32.33-.07.13-.11.3-.11.5,0,.26.06.47.18.65.12.18.28.32.48.41Zm-.06-1.44c.08-.1.21-.18.37-.24.16-.06.35-.1.58-.13.08-.01.18-.02.28-.04.1-.01.21-.03.31-.05.11-.02.2-.04.28-.07.08-.03.14-.06.17-.09v.58c0,.22-.05.42-.15.6-.1.18-.24.33-.42.44s-.39.16-.64.16c-.26,0-.48-.07-.65-.2-.17-.13-.26-.32-.26-.56,0-.16.04-.29.13-.4Z"/><path class="cls-3" d="m54.99,1.7c-.25,0-.48.06-.67.19s-.34.29-.42.49h-.03v-.61h-.45v3.99h.46v-2.58c0-.2.05-.37.14-.53.09-.15.22-.27.38-.36.16-.09.35-.13.55-.13.06,0,.12,0,.17.01s.09.01.11.02v-.47s-.07,0-.12,0c-.05,0-.09,0-.13,0Z"/><path class="cls-3" d="m56.54,4.81c0,.22.05.4.15.55s.23.26.39.33c.16.07.32.11.49.11.1,0,.18,0,.24-.02.07-.01.12-.03.17-.05l-.1-.42s-.07.02-.11.02c-.04,0-.1.01-.16.01-.1,0-.2-.02-.29-.06-.09-.04-.17-.11-.22-.2-.06-.09-.09-.22-.09-.39v-2.55h.84v-.4h-.84v-.96h-.47v.96h-.59v.4h.59v2.65Z"/><path class="cls-3" d="m61.92,5.75v-2.59c0-.31-.06-.58-.17-.8-.11-.22-.27-.38-.48-.49-.2-.11-.44-.17-.71-.17-.29,0-.54.06-.74.19-.2.12-.34.29-.44.49h-.04v-.63h-.45v3.99h.46v-2.49c0-.23.05-.43.14-.6.09-.17.22-.3.39-.39.16-.09.35-.14.56-.14.31,0,.55.1.73.29.18.19.27.45.27.78v2.56h.46Z"/><path class="cls-3" d="m65.83,4.75c-.05.12-.12.23-.22.33-.1.1-.22.18-.36.24-.14.06-.31.09-.5.09-.28,0-.52-.06-.72-.19-.2-.13-.36-.31-.47-.55-.1-.22-.15-.48-.16-.77h2.97v-.23c0-.33-.05-.62-.14-.87-.09-.24-.22-.45-.38-.61-.16-.16-.34-.28-.54-.36-.2-.08-.41-.12-.63-.12-.34,0-.65.09-.91.27s-.47.42-.61.73c-.15.31-.22.67-.22,1.07s.07.76.22,1.07c.15.31.36.55.63.73.27.17.59.26.97.26.27,0,.5-.04.71-.13.21-.09.38-.2.52-.34.14-.14.24-.3.3-.46l-.44-.14Zm-2.27-1.89c.11-.22.26-.4.45-.53.19-.14.41-.2.67-.2.24,0,.45.06.63.18s.33.28.43.49c.1.21.16.44.16.69h-2.49c.01-.22.06-.43.15-.62Z"/><path class="cls-3" d="m69.09,2.16c.05,0,.09.01.11.02v-.47s-.07,0-.12,0c-.05,0-.09,0-.13,0-.25,0-.48.06-.67.19s-.34.29-.42.49h-.03v-.61h-.45v3.99h.46v-2.58c0-.2.05-.37.14-.53.09-.15.22-.27.38-.36.16-.09.35-.13.55-.13.06,0,.12,0,.17.01Z"/><path class="cls-3" d="m47.34,10.65c-.2-.11-.44-.17-.71-.17-.29,0-.54.06-.74.19-.2.12-.34.29-.44.49h-.04v-.63h-.45v3.99h.46v-2.49c0-.23.05-.43.14-.6.09-.17.22-.3.39-.39.16-.09.35-.14.56-.14.31,0,.55.1.73.29.18.19.27.45.27.78v2.56h.46v-2.59c0-.31-.06-.58-.17-.8-.11-.22-.27-.38-.48-.49Z"/><path class="cls-3" d="m51.91,10.96c-.16-.16-.34-.28-.54-.36-.2-.08-.41-.12-.63-.12-.34,0-.65.09-.91.27s-.47.42-.61.73c-.15.31-.22.67-.22,1.07s.07.76.22,1.07c.15.31.36.55.63.73.27.17.59.26.97.26.27,0,.5-.04.71-.13.21-.09.38-.2.52-.34.14-.14.24-.3.3-.46l-.44-.14c-.05.12-.12.23-.22.33-.1.1-.22.18-.36.24-.14.06-.31.09-.5.09-.28,0-.52-.06-.72-.19-.2-.13-.36-.31-.47-.55-.1-.22-.15-.48-.16-.77h2.97v-.23c0-.33-.05-.62-.14-.87-.09-.24-.22-.45-.38-.61Zm-2.44,1.3c.01-.22.06-.43.15-.62.11-.22.26-.4.45-.53.19-.14.41-.2.67-.2.24,0,.45.06.63.18s.33.28.43.49c.1.21.16.44.16.69h-2.49Z"/><path class="cls-3" d="m54.94,14.12s-.1.01-.16.01c-.1,0-.2-.02-.29-.06-.09-.04-.17-.11-.22-.2-.06-.09-.09-.22-.09-.39v-2.55h.84v-.4h-.84v-.96h-.47v.96h-.59v.4h.59v2.65c0,.22.05.4.15.55s.23.26.39.33c.16.07.32.11.49.11.1,0,.18,0,.24-.02.07-.01.12-.03.17-.05l-.1-.42s-.07.02-.11.02Z"/><polygon class="cls-3" points="59.62 13.82 59.59 13.82 58.65 10.54 58.16 10.54 57.22 13.83 57.19 13.83 56.24 10.54 55.75 10.54 56.96 14.53 57.43 14.53 58.38 11.25 58.43 11.25 59.37 14.53 59.85 14.53 61.06 10.54 60.57 10.54 59.62 13.82"/><path class="cls-3" d="m64.28,10.74c-.26-.17-.57-.26-.91-.26s-.65.09-.91.26c-.26.17-.47.42-.62.73-.15.31-.22.67-.22,1.08s.07.76.22,1.07c.15.31.36.55.62.73.26.17.57.26.91.26s.65-.09.91-.26c.26-.18.47-.42.62-.73.15-.31.22-.67.22-1.07s-.08-.77-.23-1.08-.36-.55-.62-.73Zm.23,2.62c-.1.25-.25.45-.44.59-.19.15-.43.22-.7.22s-.51-.07-.7-.22c-.19-.15-.34-.35-.44-.59-.1-.25-.15-.52-.15-.82s.05-.57.15-.82.25-.45.44-.6.43-.23.7-.23.51.08.7.23c.19.15.34.35.44.6.1.25.15.52.15.82s-.05.57-.15.82Z"/><path class="cls-3" d="m67.72,10.48c-.25,0-.48.06-.67.19s-.34.29-.42.49h-.03v-.61h-.45v3.99h.46v-2.58c0-.2.05-.37.14-.53.09-.15.22-.27.38-.36.16-.09.35-.13.55-.13.06,0,.12,0,.17.01s.09.01.11.02v-.47s-.07,0-.12,0c-.05,0-.09,0-.13,0Z"/><polygon class="cls-3" points="71.24 14.53 71.83 14.53 70.02 12.24 71.73 10.54 71.14 10.54 69.27 12.41 69.22 12.41 69.22 9.21 68.75 9.21 68.75 14.53 69.22 14.53 69.22 12.98 69.67 12.55 71.24 14.53"/><polygon class="cls-2" points="9.36 24.13 11.25 24.13 11.25 29.66 12.06 29.66 12.06 24.13 13.96 24.13 13.96 23.44 9.36 23.44 9.36 24.13"/><path class="cls-2" d="m14.95,26.07h-.04l-.03-.88h-.71c.03.42.04.87.04,1.39v3.07h.8v-2.38c0-.14.02-.27.04-.38.11-.61.52-1.04,1.09-1.04.11,0,.19,0,.28.03v-.77c-.07-.02-.14-.03-.23-.03-.55,0-1.03.38-1.24.98Z"/><path class="cls-2" d="m20.32,26.92c0-.9-.33-1.83-1.7-1.83-.56,0-1.1.16-1.47.4l.18.53c.31-.2.75-.33,1.16-.33.91,0,1.02.66,1.02,1.03v.09c-1.73,0-2.69.58-2.69,1.66,0,.65.46,1.28,1.37,1.28.64,0,1.12-.31,1.37-.66h.03l.06.56h.74c-.05-.3-.07-.68-.07-1.07v-1.67Zm-.78,1.24c0,.08-.02.18-.05.26-.13.38-.5.75-1.08.75-.42,0-.77-.25-.77-.78,0-.87,1.01-1.02,1.89-1v.78Z"/><rect class="cls-2" x="21.62" y="25.2" width=".81" height="4.47"/><path class="cls-2" d="m22.03,23.43c-.3,0-.51.22-.51.51s.2.5.49.5c.32,0,.53-.22.52-.5,0-.29-.19-.51-.5-.51Z"/><path class="cls-2" d="m26,25.1c-.74,0-1.25.42-1.48.84h-.02l-.05-.74h-.72c.03.37.04.75.04,1.21v3.26h.81v-2.68c0-.14.02-.28.06-.38.14-.45.55-.83,1.09-.83.77,0,1.03.6,1.03,1.32v2.57h.81v-2.67c0-1.53-.96-1.9-1.58-1.9Z"/><path class="cls-2" d="m29.3,23.43c-.3,0-.51.22-.51.51s.2.5.49.5c.32,0,.53-.22.52-.5,0-.29-.19-.51-.5-.51Z"/><rect class="cls-2" x="28.9" y="25.2" width=".81" height="4.47"/><path class="cls-2" d="m33.28,25.1c-.74,0-1.25.42-1.48.84h-.02l-.05-.74h-.72c.03.37.04.75.04,1.21v3.26h.81v-2.68c0-.14.02-.28.06-.38.14-.45.55-.83,1.09-.83.77,0,1.03.6,1.03,1.32v2.57h.81v-2.67c0-1.53-.96-1.9-1.58-1.9Z"/><path class="cls-2" d="m39.27,25.87h-.02c-.19-.37-.62-.78-1.39-.78-1.02,0-2.01.86-2.01,2.37,0,1.24.79,2.18,1.9,2.18.69,0,1.17-.33,1.42-.75h.02v.5c0,1.13-.61,1.56-1.44,1.56-.55,0-1.02-.17-1.31-.35l-.2.62c.36.24.95.37,1.49.37.56,0,1.19-.13,1.62-.53.43-.39.64-1.02.64-2.04v-2.59c0-.54.02-.9.04-1.23h-.71l-.04.67Zm-.09,1.89c0,.14-.02.29-.06.43-.18.52-.63.83-1.13.83-.88,0-1.32-.73-1.32-1.61,0-1.03.55-1.69,1.33-1.69.59,0,.99.39,1.14.86.04.11.05.23.05.37v.8Z"/><path class="cls-2" d="m44.85,23.4c-.65,0-1.15.06-1.54.12v6.15h.8v-2.49c.18.05.41.05.65.05.78,0,1.48-.23,1.9-.68.31-.32.48-.77.48-1.33s-.2-1.01-.54-1.3c-.37-.33-.95-.52-1.74-.52Zm-.07,3.18c-.27,0-.49-.02-.66-.06v-2.42c.14-.04.41-.06.76-.06.89,0,1.47.4,1.47,1.22s-.59,1.33-1.56,1.33Z"/><path class="cls-2" d="m51.09,26.92c0-.9-.33-1.83-1.7-1.83-.56,0-1.1.16-1.47.4l.18.53c.31-.2.75-.33,1.16-.33.91,0,1.02.66,1.02,1.03v.09c-1.73,0-2.69.58-2.69,1.66,0,.65.46,1.28,1.37,1.28.64,0,1.12-.31,1.37-.66h.03l.06.56h.74c-.05-.3-.07-.68-.07-1.07v-1.67Zm-.78,1.24c0,.08-.02.18-.05.26-.13.38-.5.75-1.08.75-.42,0-.77-.25-.77-.78,0-.87,1.01-1.02,1.89-1v.78Z"/><path class="cls-2" d="m53.13,26.07h-.04l-.03-.88h-.71c.03.42.04.87.04,1.39v3.07h.8v-2.38c0-.14.02-.27.04-.38.11-.61.52-1.04,1.09-1.04.11,0,.19,0,.28.03v-.77c-.07-.02-.14-.03-.23-.03-.55,0-1.03.38-1.24.98Z"/><path class="cls-2" d="m56.61,23.91l-.79.21v1.07h-.69v.62h.69v2.44c0,.53.08.92.31,1.16.19.22.5.34.88.34.31,0,.56-.05.72-.11l-.04-.61c-.1.03-.26.06-.47.06-.45,0-.61-.31-.61-.87v-2.41h1.16v-.62h-1.16v-1.28Z"/><path class="cls-2" d="m60.91,25.1c-.74,0-1.25.42-1.48.84h-.02l-.05-.74h-.72c.03.37.04.75.04,1.21v3.26h.81v-2.68c0-.14.02-.28.06-.38.14-.45.55-.83,1.09-.83.77,0,1.03.6,1.03,1.32v2.57h.81v-2.67c0-1.53-.96-1.9-1.58-1.9Z"/><path class="cls-2" d="m65.57,25.1c-1.3,0-2.1,1.06-2.1,2.41s.82,2.25,2.2,2.25c.71,0,1.2-.15,1.49-.28l-.14-.58c-.3.13-.65.23-1.24.23-.81,0-1.51-.45-1.53-1.55h3.14c0-.08.03-.21.03-.38,0-.82-.39-2.1-1.84-2.1Zm-1.31,1.9c.06-.56.42-1.32,1.25-1.32.91,0,1.13.8,1.13,1.32h-2.37Z"/><path class="cls-2" d="m70.4,25.1c-.55,0-1.03.38-1.24.98h-.04l-.03-.88h-.71c.03.42.04.87.04,1.39v3.07h.8v-2.38c0-.14.02-.27.04-.38.11-.61.52-1.04,1.09-1.04.11,0,.19,0,.28.03v-.77c-.07-.02-.14-.03-.23-.03Z"/><path class="cls-3" d="m16.37,6.73c0,.36.04.65.11.86.08.21.17.45.31.7.05.08.07.15.07.22,0,.1-.06.19-.18.29l-.61.41c-.09.06-.17.09-.25.09-.1,0-.19-.05-.29-.14-.14-.15-.25-.3-.35-.45-.1-.16-.19-.35-.3-.57-.75.89-1.7,1.34-2.85,1.34-.81,0-1.46-.23-1.94-.7-.47-.46-.72-1.08-.72-1.86,0-.82.29-1.49.88-1.99.59-.5,1.37-.75,2.37-.75.33,0,.67.03,1.03.08s.73.13,1.11.21v-.71c0-.74-.15-1.25-.45-1.55-.31-.3-.83-.45-1.58-.45-.34,0-.69.04-1.05.13s-.71.19-1.05.33c-.15.07-.27.11-.34.13-.07.02-.12.03-.15.03-.14,0-.2-.1-.2-.3v-.47c0-.15.02-.27.07-.34s.14-.14.27-.2c.34-.17.75-.32,1.22-.44.47-.13.98-.18,1.51-.18,1.15,0,1.99.26,2.54.78.53.52.8,1.32.8,2.38v3.14h.02Zm-3.93,1.47c.32,0,.65-.06,1-.17.35-.12.66-.33.92-.62.15-.18.27-.39.33-.62s.1-.51.1-.84v-.41c-.28-.07-.58-.13-.89-.16s-.61-.06-.91-.06c-.65,0-1.12.13-1.44.39-.32.26-.47.63-.47,1.11,0,.45.12.79.36,1.03.23.24.57.36,1.02.36Zm7.77,1.05c-.17,0-.29-.03-.37-.1-.08-.06-.15-.19-.2-.38l-2.27-7.48c-.06-.19-.09-.32-.09-.39,0-.15.08-.24.23-.24h.95c.18,0,.31.03.38.1.08.06.14.19.19.38l1.63,6.41,1.51-6.41c.05-.19.11-.32.18-.38.08-.06.21-.1.39-.1h.77c.18,0,.31.03.39.1.08.06.15.19.18.38l1.53,6.48,1.67-6.48c.06-.19.13-.32.19-.38.08-.06.2-.1.38-.1h.9c.15,0,.24.08.24.24,0,.05,0,.1-.02.15,0,.06-.03.14-.07.24l-2.33,7.48c-.06.19-.13.32-.2.38s-.2.1-.37.1h-.83c-.18,0-.31-.03-.39-.1s-.15-.19-.18-.39l-1.5-6.24-1.49,6.23c-.05.19-.11.32-.18.39-.08.07-.21.1-.39.1h-.83Zm12.44.26c-.5,0-1.01-.06-1.49-.17-.48-.12-.86-.24-1.11-.39-.15-.09-.26-.18-.3-.27-.04-.09-.06-.18-.06-.27v-.49c0-.2.08-.3.22-.3.06,0,.12,0,.17.03.06.02.15.06.24.1.33.15.69.26,1.06.34.39.08.76.12,1.15.12.61,0,1.08-.11,1.41-.32.33-.21.5-.52.5-.92,0-.27-.09-.49-.26-.68-.17-.18-.5-.35-.98-.5l-1.4-.44c-.71-.22-1.23-.55-1.55-.99-.32-.43-.48-.9-.48-1.4,0-.41.09-.76.26-1.07.17-.31.41-.58.7-.79.29-.22.62-.39,1.01-.5.39-.12.79-.16,1.22-.16.21,0,.44,0,.65.04.22.03.43.07.63.11.19.05.38.1.55.15.17.06.31.12.41.17.14.08.23.15.29.24.06.08.09.18.09.32v.45c0,.2-.08.31-.22.31-.08,0-.2-.04-.37-.12-.55-.25-1.17-.38-1.86-.38-.55,0-.99.09-1.29.27s-.45.46-.45.86c0,.27.1.5.29.69.19.18.55.37,1.06.53l1.37.44c.7.22,1.2.53,1.5.93.3.4.45.85.45,1.35,0,.42-.09.79-.25,1.12-.17.33-.41.62-.71.85-.3.24-.66.42-1.07.54-.44.14-.89.2-1.38.2Z"/><path class="cls-1" d="m34.48,14.21c-3.18,2.35-7.81,3.6-11.79,3.6-5.57,0-10.6-2.06-14.39-5.49-.3-.27-.03-.64.33-.43,4.1,2.38,9.17,3.82,14.4,3.82,3.53,0,7.41-.74,10.98-2.25.53-.24.99.35.46.74Z"/><path class="cls-1" d="m35.8,12.7c-.41-.52-2.69-.25-3.73-.13-.31.04-.36-.23-.08-.44,1.82-1.28,4.81-.91,5.16-.48.35.44-.1,3.43-1.8,4.86-.26.22-.51.11-.4-.18.39-.96,1.25-3.12.84-3.63Z"/></svg>