<?xml version="1.0" encoding="UTF-8"?><svg id="Layer_1" xmlns="http://www.w3.org/2000/svg" viewBox="0 0 85.5034 24"><defs><style>.cls-1{fill:#7fba42;}.cls-1,.cls-2,.cls-3,.cls-4,.cls-5{stroke-width:0px;}.cls-2{fill:#737374;}.cls-3{fill:#329fd9;}.cls-4{fill:#ef5125;}.cls-5{fill:#fcb713;}</style></defs><path class="cls-2" d="m35.6764,6.6011v10.7977h-1.8754v-8.4677h-.0189l-3.353,8.4677h-1.2503l-3.4287-8.4677h-.0189v8.4677h-1.7238V6.6011h2.69l3.0878,7.9941h.0568l3.2772-7.9941h2.5574Zm1.5534.8335c0-.3031.0947-.5494.322-.7577s.4736-.3031.7767-.3031c.322,0,.6062.0947.7956.3031s.322.4546.322.7577-.0947.5494-.322.7577-.4736.3031-.7956.3031-.5683-.0947-.7767-.3031c-.2084-.2273-.322-.4736-.322-.7577Zm2.0269,2.2164v7.7478h-1.8186v-7.7478h1.8186Zm5.5125,6.4218c.2841,0,.5683-.0568.8903-.2084.322-.1326.6251-.3031.8903-.4925v1.7049c-.3031.1705-.6251.3031-1.004.3789s-.7767.1326-1.2313.1326c-1.1555,0-2.0648-.341-2.7657-1.0798-.7198-.7198-1.0798-1.6481-1.0798-2.7468,0-1.2503.3789-2.2732,1.0987-3.0688s1.7428-1.1934,3.0878-1.1934c.341,0,.7009.0568,1.0229.1326.341.0758.6251.2084.8335.3031v1.7428c-.2841-.2084-.5683-.3789-.8525-.4736-.3031-.0947-.6062-.1705-.8903-.1705-.7198,0-1.3071.2273-1.7428.7009s-.6441,1.0987-.6441,1.8943.2273,1.4018.6441,1.8186,1.004.6441,1.7238.6441l.0189-.0189Zm6.9712-6.5355c.1516,0,.2842,0,.3978.0189s.2273.0568.3031.0758v1.8564c-.0947-.0758-.2273-.1515-.4168-.2084s-.3978-.0947-.682-.0947c-.4546,0-.8335.2084-1.1177.5683s-.4736.9472-.4736,1.7428v3.9023h-1.8186v-7.7478h1.8186v1.2313h.0189c.1705-.4168.4168-.7577.7577-1.004.341-.2273.7577-.341,1.2313-.341h-.0189Zm.7956,4.1297c0-1.2692.3789-2.2921,1.0798-3.0499.7198-.7577,1.7238-1.1177,2.9931-1.1177,1.1934,0,2.1406.341,2.8226,1.0798.682.7198,1.0229,1.7049,1.0229,2.9173s-.3789,2.2543-1.0798,2.9931c-.7198.7577-1.7049,1.1177-2.9552,1.1177s-2.1406-.341-2.8415-1.0419c-.7009-.7198-1.0419-1.7049-1.0419-2.8983Zm1.8943-.0758c0,.7956.1705,1.4208.5494,1.8564s.8903.6441,1.5723.6441,1.1745-.2084,1.5155-.6441c.341-.4168.5304-1.0419.5304-1.8943s-.1705-1.4397-.5304-1.8943c-.341-.4168-.8714-.6441-1.4965-.6441-.682,0-1.1745.2273-1.5534.682-.4168.4736-.6062,1.0987-.6062,1.9322l.0189-.0379Zm8.7329-1.8754c0,.2463.0758.4736.2463.6251s.5304.322,1.0987.5494c.7198.3031,1.2503.6251,1.5155.9661.3031.3789.4546.7956.4546,1.326,0,.7198-.2842,1.3071-.8525,1.7428-.5494.4546-1.326.6441-2.2732.6441-.322,0-.682-.0568-1.0798-.1326s-.7198-.1705-1.004-.3031v-1.7996c.322.2273.7009.4168,1.0798.5494s.7198.2084,1.0419.2084c.3978,0,.7198-.0568.8903-.1705.2084-.1326.3031-.3031.3031-.5683,0-.2463-.0947-.4546-.3031-.6441-.2084-.1705-.6062-.3789-1.1555-.6062-.682-.2841-1.1555-.6062-1.4208-.9472s-.4168-.7956-.4168-1.345c0-.7009.2842-1.2692.8335-1.7238s1.2692-.682,2.1406-.682c.2842,0,.5683.0189.8903.0947s.6251.1515.8525.2273v1.7807c-.2463-.1515-.5304-.3031-.8525-.4168s-.6441-.1705-.9472-.1705c-.341,0-.6251.0758-.7956.2084-.1705.1705-.2842.341-.2842.6062l.0379-.0189Zm4.0918,1.9512c0-1.2692.3789-2.2921,1.0798-3.0499.7198-.7577,1.7238-1.1177,2.9931-1.1177,1.1934,0,2.1406.341,2.8226,1.0798.682.7198,1.0229,1.7049,1.0229,2.9173s-.3789,2.2543-1.0798,2.9931c-.7198.7577-1.7049,1.1177-2.9552,1.1177s-2.1406-.341-2.8415-1.0419c-.682-.7198-1.0419-1.7049-1.0419-2.8983Zm1.8943-.0758c0,.7956.1705,1.4208.5494,1.8564s.8903.6441,1.5723.6441,1.1745-.2084,1.5155-.6441c.341-.4168.5304-1.0419.5304-1.8943s-.1705-1.4397-.5304-1.8943c-.341-.4168-.8714-.6441-1.4965-.6441-.682,0-1.1745.2273-1.5534.682-.3978.4736-.6062,1.0987-.6062,1.9322l.0189-.0379Zm12.0859-2.4247h-2.7278v6.2513h-1.8564v-6.2513h-1.3071v-1.4965h1.3071v-1.0798c0-.7956.2842-1.4776.7956-1.9891s1.1934-.7767,2.0269-.7767c.2273,0,.4168.0189.6062.0189s.322.0568.4546.0947v1.5723s-.1705-.0758-.322-.1326c-.1516-.0568-.322-.0758-.5304-.0758-.3789,0-.682.1326-.8714.341s-.3031.6062-.3031,1.0419v.9282h2.7278v-1.7428l1.8186-.5494v2.2921h1.8564v1.4965h-1.8564v3.6182c0,.4736.0947.7956.2463,1.004.1705.2084.4546.3031.8335.3031.0947,0,.2273-.0189.3789-.0758s.2842-.0947.3789-.1705v1.4965c-.1326.0758-.3031.1326-.5683.1705-.2842.0568-.5304.0758-.7956.0758-.7767,0-1.345-.2084-1.7238-.6062s-.5683-1.0229-.5683-1.8565v-3.9402h.0189l-.019.0379Z"/><rect class="cls-4" x=".5933" y="3.0019" width="8.5435" height="8.5435"/><rect class="cls-1" x="10.046" y="3.0019" width="8.5435" height="8.5435"/><rect class="cls-3" x=".5933" y="12.4546" width="8.5435" height="8.5435"/><rect class="cls-5" x="10.046" y="12.4546" width="8.5435" height="8.5435"/></svg>