<?xml version="1.0" encoding="UTF-8"?><svg id="Layer_1" xmlns="http://www.w3.org/2000/svg" xmlns:xlink="http://www.w3.org/1999/xlink" viewBox="0 0 128 32"><defs><style>.cls-1{clip-path:url(#clippath);}.cls-2{fill:none;}.cls-2,.cls-3,.cls-4,.cls-5{stroke-width:0px;}.cls-3{fill:#1a1818;}.cls-4{fill:#fff;}.cls-5{fill:#e71d1c;}</style><clipPath id="clippath"><polygon class="cls-2" points="27.19 25.54 100.81 25.54 100.81 10.02 27.19 10.02 27.19 25.54 27.19 25.54"/></clipPath></defs><g class="cls-1"><path class="cls-3" d="m36.58,16.91s0,4.43,0,4.43c0,.56-.48,1.04-1.1,1.04h-.6v.23h5.08v-.23h-.6c-.62,0-1.1-.5-1.1-1.04v-9.86c0-.54.48-1.04,1.1-1.04h.6v-.23h-5.08v.23h.6c.63,0,1.1.5,1.1,1.04v4.81h-6.02v-4.81c0-.54.49-1.04,1.1-1.04h.6v-.23h-5.08v.23h.6c.63,0,1.1.5,1.1,1.04v9.86c0,.55-.48,1.04-1.1,1.04h-.6v.23h5.08v-.23h-.6c-.62,0-1.1-.5-1.1-1.04,0,0,0-4.43,0-4.43h6.02Z"/><path class="cls-3" d="m48.66,19.37c.04.73-.41,1.84-1.04,2.4-.6.54-1.46,1.02-2.61,1.02-1.3,0-2.43-.7-2.84-.85-.25-.1-.57-.08-.77.03-.23.14-.36.36-.42.78h-.19v-4.3h.19c.17,1.32.79,2.1,1.17,2.54.63.72,1.81,1.13,2.95.95.91-.15,1.9-1.13,1.79-2.34-.04-.44-.13-1.08-1.05-1.67-.57-.37-1.39-.91-2.16-1.42-.97-.65-1.86-1.34-2.1-1.63-.33-.37-.73-.9-.73-1.76,0-.73.28-1.57.87-2.12.59-.56,1.39-.97,2.54-.97s2.02.61,2.31.75.62.11.81,0c.18-.1.3-.26.36-.68h.19v4.07h-.19c-.17-1.32-.75-2.31-1.15-2.68-.4-.37-1.18-.87-2.35-.64-1.12.22-1.66.72-1.77,1.62-.08.68.29,1.1.5,1.36.44.52,3.2,2.09,4.44,3.17.64.56,1.15,1.22,1.22,2.38"/><path class="cls-3" d="m52.71,21.91c.86.27,2.5.47,3.64-.35,1.37-.98,1.66-3.37-.27-4.62-.78-.5-2.72-.47-3.36-.32v5.28Zm0-5.98c.61.16,2.4.2,3.1-.24,1.09-.69,1.47-1.8,1.27-2.78-.12-.59-.43-1.13-.97-1.51-1.06-.75-2.59-.63-3.39-.38v4.92Zm4,.35c2.21.76,2.84,2.32,2.43,3.93-.48,1.89-2.61,2.27-3.3,2.37-.31.04-1.11.04-1.9.04-1.41,0-3.18,0-4.61,0v-.23h.73c.46,0,1-.39,1-.98v-9.9c0-.59-.53-.99-.99-.99h-.73v-.23c1.26,0,3.1,0,4.41,0,1.06,0,1.64.1,2.01.17.63.12,2.45.66,2.89,2.37.34,1.32-.32,2.98-1.93,3.46"/><path class="cls-3" d="m70.77,10.42l.18,4.2h-.25c-.12-1.05-.52-1.8-1.03-2.29-.15-.14-.42-.42-.82-.67-.66-.42-1.65-.79-2.82-.58-1.76.31-2.66,1.47-3.11,2.59-.56,1.37-.91,3.72.04,5.71.77,1.61,2.24,2.28,3.37,2.45.97.15,3.11.1,4.75-2.1l.26.17c-1.27,1.79-2.96,2.94-4.89,2.92-2.47-.02-4.02-1.38-4.73-2.19-.75-.85-1.32-2.47-1.33-3.88,0-1.25.27-2.65.72-3.46.77-1.4,2.39-2.79,4.52-3,1.6-.16,2.64.16,3.54.67.45.26.7.29.94.18.24-.1.44-.31.44-.72h.21Z"/><path class="cls-4" d="m93.63,22.61h-12.39v-12.39h12.39v12.39Z"/><path class="cls-5" d="m75.04,16.41l6.2,6.2v-12.39l-6.2,6.2Z"/><path class="cls-5" d="m81.23,22.61h12.39l-6.2-6.2-6.2,6.2Z"/><path class="cls-5" d="m87.43,16.41l6.2-6.2h-12.39l6.2,6.2Z"/><path class="cls-5" d="m93.63,10.22v12.39l6.2-6.2-6.2-6.2Z"/></g></svg>