<?xml version="1.0" encoding="UTF-8"?><svg id="Layer_1" xmlns="http://www.w3.org/2000/svg" viewBox="0 0 128 32"><defs><style>.cls-1{fill:#c74634;stroke-width:0px;}</style></defs><path class="cls-1" d="m57.62,17.84h6.23l-3.29-5.32-6.06,9.61h-2.75l7.37-11.53c.56-.79,1.65-.99,2.44-.44.16.11.3.25.42.41l7.39,11.55h-2.75l-1.3-2.15h-6.31l-1.38-2.14m28.61,2.14v-10.01h-2.34v11c0,.31.13.61.35.82.22.23.53.36.85.36h10.64l1.38-2.15h-10.9m-38.68-1.8c2.27,0,4.11-1.84,4.11-4.11s-1.84-4.11-4.11-4.11h-10.23v12.16h2.34v-10.01h7.75c1.09,0,1.97.88,1.97,1.97s-.88,1.97-1.97,1.97h-6.59l6.98,6.07h3.39l-4.69-3.94h1.05m-24.6,3.94h7.07c3.35-.09,6-2.88,5.92-6.23-.08-3.24-2.69-5.83-5.92-5.92h-7.07c-3.37-.1-6.16,2.55-6.24,5.9-.09,3.35,2.56,6.15,5.92,6.23h.32m6.91-2.14h-6.75c-2.17-.07-3.88-1.89-3.81-4.06.07-2.07,1.73-3.74,3.81-3.81h6.75c2.17-.07,3.99,1.64,4.06,3.81.07,2.17-1.64,3.99-3.81,4.06h-.25m44.39,2.14h7.21l1.37-2.14h-8.42c-2.17.07-3.99-1.64-4.06-3.81-.07-2.17,1.64-3.99,3.81-4.06h7.11l1.38-2.15h-8.4c-3.35-.09-6.15,2.56-6.23,5.92-.09,3.35,2.56,6.15,5.92,6.23h.32m28.59-2.14c-1.76,0-3.31-1.17-3.79-2.87h9.99l1.38-2.15h-11.36c.48-1.7,2.03-2.87,3.79-2.87h6.86l1.37-2.15h-8.39c-3.35.09-6,2.88-5.92,6.23.08,3.24,2.69,5.83,5.92,5.92h7.21l1.37-2.14h-8.43"/></svg>