<?xml version="1.0" encoding="UTF-8"?><svg id="Layer_1" xmlns="http://www.w3.org/2000/svg" viewBox="0 0 128 32"><defs><style>.cls-1{fill:#1f1a17;}.cls-1,.cls-2{fill-rule:evenodd;stroke-width:0px;}.cls-2{fill:#de3b21;}</style></defs><g id="Ebene_1"><path class="cls-1" d="m53.97,15.96h0c-.55-.49-1.22-.76-2.31-.93t-1.37-.2c-.52-.08-.99-.27-1.27-.52-.27-.24-.4-.58-.4-1,0-1.04.8-1.72,2.04-1.72,1.09,0,1.86.27,2.5.88.06.06.15.05.21,0l1.16-1.14s.04-.07.04-.11c0-.04-.02-.08-.05-.11-1.05-.98-2.19-1.4-3.82-1.4-2.52,0-4.15,1.44-4.15,3.66,0,1.03.3,1.81.92,2.4.55.52,1.37.86,2.35,1l1.41.2c.67.1.95.2,1.23.47.28.25.42.64.42,1.14,0,1.07-.85,1.68-2.32,1.68-1.32,0-2.17-.32-2.96-1.1-.06-.06-.15-.06-.21,0l-1.21,1.2s-.04.06-.04.1c0,.04.02.08.04.11,1.12,1.14,2.42,1.63,4.35,1.63,2.71,0,4.46-1.44,4.46-3.67,0-1.09-.36-1.98-1.03-2.57h0Z"/><path class="cls-1" d="m60.6,18.86c0,.57-.1.93-.33,1.16-.39.38-.79.44-1.49.44-.95,0-1.42-.35-1.42-1.06,0-.89.75-1.08,1.38-1.08h1.85v.54Zm2.01-2.62c0-2.01-1.27-3.08-3.66-3.08-1.51,0-2.37.35-3.17,1.28-.05.06-.05.15.01.21l1.13,1.06s.07.04.11.04c.04,0,.08-.02.11-.06.45-.58.88-.77,1.75-.77,1.22,0,1.72.42,1.72,1.45v.46h-2.1c-1.91,0-3.09,1-3.09,2.61,0,.77.25,1.46.72,1.94.56.56,1.32.82,2.39.82.92,0,1.52-.19,2.09-.66l.03-.02v.43c0,.08.07.15.15.15h1.68c.08,0,.15-.07.15-.15v-5.7h0Z"/><path class="cls-1" d="m67.21,20.36c-1.36,0-1.63-1.08-1.63-2.69s.28-2.68,1.63-2.68,1.62,1.02,1.62,2.68-.27,2.69-1.62,2.69Zm2.63-6.4c-.51-.51-1.31-.8-2.19-.8s-1.52.22-2.07.75l-.03.03v-.53c0-.08-.07-.15-.15-.15h-1.68c-.08,0-.15.07-.15.15v11.98c0,.08.07.15.15.15h1.72c.08,0,.15-.07.15-.15v-3.95l.03.03c.54.5,1.18.72,2.06.72s1.67-.29,2.18-.8c.88-.88,1-2.38,1-3.72s-.12-2.82-1-3.71h0Z"/><path class="cls-1" d="m73.6,13.41c0-.08-.07-.15-.15-.15h-1.72c-.08,0-.15.07-.15.15v8.53c0,.08.07.15.15.15h1.72c.08,0,.15-.07.15-.15v-8.53Z"/><path class="cls-1" d="m73.65,10.26c0-.08-.07-.15-.15-.15h-1.82c-.08,0-.15.07-.15.15v1.47c0,.08.07.15.15.15h1.82c.08,0,.15-.07.15-.15v-1.47Z"/><path class="cls-1" d="m76.28,16.83v-.02c.02-.41.07-.63.2-.93.26-.62.84-.99,1.56-.99s1.29.37,1.55.99c.14.32.19.55.21.93v.02s-3.52,0-3.52,0h0Zm5.53.59c0-2.58-1.48-4.25-3.77-4.25s-3.77,1.73-3.77,4.51c0,2.92,1.42,4.52,3.98,4.52,1.61,0,2.45-.53,3.3-1.37.03-.03.04-.07.04-.11,0-.04-.02-.08-.05-.11l-1.09-1.03c-.06-.06-.15-.05-.21,0-.55.55-1.01.83-1.96.83-1.22,0-1.95-.75-2.01-2.07v-.02s5.37,0,5.37,0c.08,0,.15-.07.15-.15v-.76h0Z"/><path class="cls-1" d="m89.76,16.49c0-1.13-.28-1.9-.9-2.51-.55-.53-1.31-.82-2.21-.82-.79,0-1.52.25-2.09.74l-.03.03v-.51c0-.08-.07-.15-.15-.15h-1.68c-.08,0-.15.07-.15.15v8.53c0,.08.07.15.15.15h1.72c.08,0,.15-.07.15-.15v-5.2c0-1.1.6-1.75,1.62-1.75s1.57.64,1.57,1.75v5.2c0,.08.07.15.15.15h1.71c.08,0,.15-.07.15-.15v-5.45h0Z"/><path class="cls-1" d="m94.63,20.48c0-.08-.07-.15-.15-.15h-.71c-.53,0-.79-.28-.79-.84v-4.46h1.5c.08,0,.15-.07.15-.15v-1.31c0-.08-.07-.15-.15-.15h-1.5v-2.44c0-.08-.07-.15-.14-.15,0,0-1.72.47-1.72.47-.08,0-.15.07-.15.15v1.98s-.82,0-.82,0c-.08,0-.15.07-.15.15v1.31c0,.08.07.15.15.15h.83v4.54c0,1.25.77,2.52,2.49,2.52h1.03c.08,0,.15-.07.15-.15v-1.46h0Z"/><path class="cls-2" d="m35.32,23.62c0-1.11.98-1.93,2.06-1.93h2.23c.89,0,1.61-.72,1.61-1.61v-2.24c0-.89-.72-1.6-1.61-1.6h-2.38c-1.11,0-1.93-.99-1.93-2.06v-2.43c0-1.11.99-1.93,2.06-1.93h2.25c.89,0,1.61-.7,1.61-1.59v-2.23c0-.89-.72-1.61-1.61-1.61h-2.23c-.89,0-1.61.72-1.61,1.61v2.25c0,1.07-.82,2.06-1.93,2.06h-2.37c-.89,0-1.61.71-1.61,1.6v2.24c0,.89.72,1.61,1.61,1.61h2.27c1.07,0,2.06.82,2.06,1.93v2.42c0,1.07-.82,2.05-1.93,2.04h-2.39c-.89,0-1.61.72-1.61,1.61v2.23c0,.89.72,1.61,1.61,1.61h2.24c.89,0,1.61-.72,1.61-1.61v-2.37Z"/><path class="cls-1" d="m96.84,11.6h-.22v.37h.22c.12,0,.2-.09.2-.19,0-.1-.08-.19-.2-.19Zm.19,1.17l-.26-.56h-.15v.56h-.32v-1.44h.59c.29,0,.48.21.48.45,0,.2-.13.33-.27.38l.3.61h-.37Zm-.24-1.77c-.58,0-1.03.45-1.03,1.05s.45,1.05,1.03,1.05,1.03-.45,1.03-1.05c0-.6-.45-1.05-1.03-1.05Zm0,2.41c-.75,0-1.35-.61-1.35-1.35s.61-1.35,1.35-1.35,1.35.61,1.35,1.35-.61,1.35-1.35,1.35Z"/></g></svg>