<?xml version="1.0" encoding="UTF-8"?><svg id="Layer_1" xmlns="http://www.w3.org/2000/svg" viewBox="0 0 128 32"><defs><style>.cls-1,.cls-2,.cls-3{stroke-width:0px;}.cls-2{fill:#fff;}.cls-3{fill:#e60028;}</style></defs><path id="rect6" class="cls-3" d="m20.88,7.56h16.83v8.62h-16.83V7.56Z"/><path id="rect8" class="cls-1" d="m20.88,15.94h16.83v8.44h-16.83v-8.44Z"/><g id="g24"><g id="g22"><g id="g20"><g id="g18"><g id="g16"><g id="g14"><g id="g12"><path id="rect10" class="cls-2" d="m23.8,15.46h10.94v1.01h-10.94v-1.01Z"/></g></g></g></g></g></g></g><g id="g86"><path id="path56" class="cls-1" d="m48.95,9.46c-.89-.36-1.9-.65-2.74-.65-1.25,0-1.9.3-1.9.77,0,1.37,5.65.3,5.65,3.27,0,1.25-1.13,2.2-3.45,2.2-1.37,0-2.44-.3-3.69-.95l.54-1.13c1.07.59,2.08.89,3.15.89,1.37,0,2.08-.42,2.08-1.01,0-1.55-5.65-.36-5.65-3.15,0-1.19,1.13-2.02,3.21-2.02,1.25,0,2.26.3,3.27.77l-.48,1.01Z"/><path id="path58" class="cls-1" d="m55.26,15.05c-2.26,0-4.1-1.49-4.1-3.75s1.84-3.75,4.1-3.75,4.1,1.55,4.1,3.75c-.06,2.26-1.84,3.75-4.1,3.75m0-6.3c-1.67,0-2.74,1.13-2.74,2.56s1.07,2.56,2.74,2.56,2.74-1.07,2.74-2.56-1.07-2.56-2.74-2.56"/><path id="path60" class="cls-1" d="m64.71,15.05c-2.38,0-4.16-1.49-4.16-3.75s1.78-3.75,4.16-3.75c1.37,0,2.38.42,3.27,1.07l-.71,1.01c-.65-.48-1.49-.89-2.56-.89-1.72,0-2.8,1.07-2.8,2.5s1.07,2.5,2.8,2.5c1.07,0,1.96-.36,2.56-.83l.71,1.01c-.83.71-1.9,1.13-3.27,1.13"/><path id="rect62" class="cls-1" d="m69.47,7.79h1.31v7.08h-1.31v-7.08Z"/><path id="polygon64" class="cls-1" d="m72.68,14.81v-7.02h6.42v1.13h-5.11v1.72h3.98v1.19h-3.98v1.84h5.35v1.13h-6.66Z"/><path id="polygon66" class="cls-1" d="m80.06,8.92v-1.13h7.08v1.13h-2.91v5.89h-1.31v-5.89h-2.85Z"/><path id="polygon68" class="cls-1" d="m88.15,14.81v-7.02h6.42v1.13h-5.11v1.72h3.98v1.19h-3.98v1.84h5.35v1.13h-6.66Z"/><path id="path70" class="cls-1" d="m46.87,23.2c.71,0,1.43-.18,2.02-.42v-2.02h1.25v2.74c-.89.59-2.14.95-3.33.95-2.38,0-4.16-1.49-4.16-3.75s1.78-3.75,4.16-3.75c1.37,0,2.38.36,3.27,1.07l-.71,1.01c-.65-.48-1.49-.83-2.56-.83-1.72-.06-2.8,1.07-2.8,2.5s1.07,2.5,2.85,2.5"/><path id="polygon72" class="cls-1" d="m51.87,24.21v-7.02h6.42v1.13h-5.11v1.72h3.98v1.19h-3.98v1.84h5.35v1.13h-6.66Z"/><path id="path74" class="cls-1" d="m61.09,24.21h-1.31v-7.08h1.31l4.58,5.29h.06c-.06-1.31-.06-2.44-.06-3.45v-1.84h1.25v7.08h-1.31l-4.58-5.29c.06,1.07.06,2.85.06,3.45v1.84Z"/><path id="polygon76" class="cls-1" d="m68.76,24.21v-7.02h6.42v1.13h-5.11v1.72h3.98v1.19h-3.98v1.84h5.35v1.13h-6.66Z"/><path id="path78" class="cls-1" d="m80.24,21.65h-2.08v2.62h-1.31v-7.08h4.52c1.49,0,2.44.95,2.44,2.26s-.89,2.02-2.02,2.2l2.08,2.62h-1.67l-1.96-2.62Zm.95-1.19c.83,0,1.31-.42,1.31-1.01,0-.65-.42-1.07-1.13-1.07h-3.21v2.14h3.03v-.06Z"/><path id="path80" class="cls-1" d="m86.54,22.54l-.83,1.72h-1.43l3.45-7.08h1.37l3.45,7.08h-1.43l-.83-1.72h-3.75Zm.54-1.19h2.74l-1.37-2.85-1.37,2.85Z"/><path id="polygon82" class="cls-1" d="m93.56,24.21v-7.02h1.31v5.89h4.7v1.13h-6.01Z"/><path id="polygon84" class="cls-1" d="m100.46,24.21v-7.02h6.42v1.13h-5.11v1.72h3.98v1.19h-3.98v1.84h5.35v1.13h-6.66Z"/></g></svg>