<?xml version="1.0" encoding="UTF-8"?><svg id="Layer_1" xmlns="http://www.w3.org/2000/svg" xmlns:xlink="http://www.w3.org/1999/xlink" viewBox="0 0 17.5 17.5"><defs><style>.cls-1{clip-path:url(#clippath);}.cls-2{fill:none;}.cls-2,.cls-3,.cls-4,.cls-5,.cls-6,.cls-7{stroke-width:0px;}.cls-3{fill:#e10002;}.cls-4{fill:#dcdcde;}.cls-5{fill:#fdfcfc;}.cls-6{fill:red;}.cls-7{fill:#eaeaea;}</style><clipPath id="clippath"><circle class="cls-2" cx="8.75" cy="8.75" r="8.49"/></clipPath></defs><circle class="cls-6" cx="8.75" cy="8.75" r="8.49"/><g class="cls-1"><polygon class="cls-3" points="4.95 14.14 13.22 20.91 21.07 9.88 12.38 4.66 9.44 8.91 10.81 10.49 4.95 14.14"/></g><g id="DadQGB.tif"><path class="cls-5" d="m6.28,11.63c-1.04.1-1.7-.61-1.72-1.58-.02-.95.36-1.76.93-2.49.55-.71,1.21-1.31,1.9-1.89.54-.46,1.07-.92,1.61-1.38.08-.07.12-.15.11-.26-.01-.41,0-.83,0-1.25.04-.02.07.03.11.05,1.02.58,2.04,1.16,3.05,1.75.04.02.1.04.11.1-.59.87-1.19,1.74-1.77,2.61-.23.35-.49.68-.69,1.05-.25.28-.4.62-.69.9,0-.13,0-.25,0-.38,0-.12,0-.23,0-.35,0-.3-.02-.6-.02-.9,0-.1-.02-.13-.12-.08-.71.32-1.43.64-2.14.96-.03,0-.07.01-.1.03-.72.31-1.48,1.25-1.4,2.23.01.23.06.45.23.62.09.11.2.19.34.21.08.07.19.05.27.09Z"/><path class="cls-7" d="m6.93,11.42s.03-.02.04-.02c-.01,0-.03.02-.04.02Z"/><polygon class="cls-4" points="6.97 11.4 6.97 11.4 6.97 11.4 6.97 11.4"/><path class="cls-4" d="m11.91,8.83c-.04-.14-.13-.26-.25-.34-.19-.13-.42-.18-.65-.2-.18-.02-.91,0-1.09.02-.25.28-.4.62-.69.9v-.38h0c0-.12,0-.23,0-.35-.21.07-.42.16-.62.27-.08.03-.16.06-.24.1-.45.19-.88.41-1.34.58-.12.05-.27.03-.36-.06-.12-.11-.14-.28-.05-.48.07-.17.19-.31.32-.43-.03,0-.07.01-.1.03-.72.31-1.48,1.25-1.4,2.23.01.23.06.45.23.62.09.11.2.19.34.21.08.07.19.05.27.09.23-.02.44-.11.65-.21.01-.02.02-.03.03-.05,0,0,0,0,0,0,0,0,0,.02,0,.03.41-.16.8-.34,1.19-.53.44-.19.87-.4,1.32-.55.13-.05.27-.1.41-.12.17-.02.23.06.17.21-.07.19-.21.33-.36.46-.22.19-.44.36-.68.52-1.35.89-4.12,2.69-4.07,2.74.22-.06.41-.2.61-.3,1.14-.57,2.2-1.28,3.31-1.91.06-.03.12-.07.18-.1,0,0,0,0,0,0,.01,0,.03-.02.04-.03.05-.03.09-.07.14-.1.64-.4,1.27-.81,1.84-1.32.3-.28.58-.58.75-.96.09-.2.14-.4.09-.6Zm-4.88,2.45s0,0,0,0c0,0,0,0,0,0Zm-.05.06s0,0,0,0c0,0,0,0,0,0Zm.02-.03s0,0,0,0c0,0,0,0,0,0Z"/></g></svg>