<svg width="12" height="13" viewBox="0 0 12 13" fill="none" xmlns="http://www.w3.org/2000/svg">
<path d="M2.111 2.81928C1.9155 2.62378 1.9155 2.30778 2.111 2.11228C4.2555 -0.0322187 7.745 -0.0322187 9.8895 2.11228C10.085 2.30778 10.085 2.62378 9.8895 2.81928C9.792 2.91678 9.664 2.96578 9.536 2.96578C9.408 2.96578 9.28 2.91678 9.1825 2.81928C7.4275 1.06478 4.573 1.06478 2.818 2.81928C2.6225 3.01478 2.3065 3.01478 2.111 2.81928ZM3.5255 3.52678C3.33 3.72228 3.33 4.03878 3.5255 4.23378C3.721 4.42928 4.037 4.42928 4.2325 4.23378C4.7045 3.76178 5.3325 3.50178 6 3.50178C6.6675 3.50178 7.2955 3.76178 7.7675 4.23378C7.865 4.33128 7.993 4.38028 8.121 4.38028C8.249 4.38028 8.377 4.33128 8.4745 4.23378C8.67 4.03878 8.67 3.72228 8.4745 3.52678C7.8135 2.86578 6.935 2.50178 6 2.50178C5.065 2.50178 4.1865 2.86578 3.5255 3.52678ZM12 7.50178V10.5018C12 11.6048 11.103 12.5018 10 12.5018H2C0.897 12.5018 0 11.6048 0 10.5018V7.50178C0 6.39878 0.897 5.50178 2 5.50178H10C11.103 5.50178 12 6.39878 12 7.50178ZM11 7.50178C11 6.95028 10.5515 6.50178 10 6.50178H2C1.4485 6.50178 1 6.95028 1 7.50178V10.5018C1 11.0533 1.4485 11.5018 2 11.5018H10C10.5515 11.5018 11 11.0533 11 10.5018V7.50178ZM2.5 10.0018V7.50178C2.5 7.22578 2.2765 7.00178 2 7.00178C1.7235 7.00178 1.5 7.22578 1.5 7.50178V10.5018C1.5 10.7778 1.7235 11.0018 2 11.0018H2.5C2.7765 11.0018 3 10.7778 3 10.5018C3 10.2258 2.7765 10.0018 2.5 10.0018ZM10 8.00178C10.2765 8.00178 10.5 7.77778 10.5 7.50178C10.5 7.22578 10.2765 7.00178 10 7.00178H9.25C8.8365 7.00178 8.5 7.33828 8.5 7.75178V10.2518C8.5 10.6653 8.8365 11.0018 9.25 11.0018H10C10.2765 11.0018 10.5 10.7778 10.5 10.5018C10.5 10.2258 10.2765 10.0018 10 10.0018H9.5V9.50178H10C10.2765 9.50178 10.5 9.27778 10.5 9.00178C10.5 8.72578 10.2765 8.50178 10 8.50178H9.5V8.00178H10ZM4 7.00178C3.7235 7.00178 3.5 7.22578 3.5 7.50178V10.5018C3.5 10.7778 3.7235 11.0018 4 11.0018C4.2765 11.0018 4.5 10.7778 4.5 10.5018V7.50178C4.5 7.22578 4.2765 7.00178 4 7.00178ZM7.658 7.02728C7.3935 6.93928 7.1125 7.08128 7.0255 7.34328L6.4995 8.92028L5.9735 7.34328C5.886 7.08128 5.605 6.93928 5.341 7.02728C5.0795 7.11478 4.9375 7.39778 5.025 7.65978L6.025 10.6598C6.093 10.8638 6.284 11.0018 6.499 11.0018C6.714 11.0018 6.905 10.8643 6.973 10.6598L7.973 7.65978C8.0605 7.39778 7.919 7.11478 7.657 7.02728H7.658Z" fill="#0071e3"/>
</svg>
